<?xml version="1.0" encoding="UTF-8"?>
<svg version="1.1" xmlns="http://www.w3.org/2000/svg" width="651" height="655">
<path d="M0 0 C214.83 0 429.66 0 651 0 C651 216.15 651 432.3 651 655 C436.17 655 221.34 655 0 655 C0 438.85 0 222.7 0 0 Z " fill="#240473" transform="translate(0,0)"/>
<path d="M0 0 C26.73 0 53.46 0 81 0 C81.33 14.52 81.66 29.04 82 44 C94.87 44.495 94.87 44.495 108 45 C108 142.35 108 239.7 108 340 C116.91 340 125.82 340 135 340 C134.96519531 336.66261719 134.93039063 333.32523437 134.89453125 329.88671875 C134.87107692 326.6232997 134.85289382 323.35989035 134.83520508 320.09643555 C134.82019924 317.8434625 134.79978809 315.59051825 134.77368164 313.33764648 C134.73693557 310.08309786 134.72019106 306.82893834 134.70703125 303.57421875 C134.69154739 302.58105148 134.67606354 301.58788422 134.66011047 300.56462097 C134.65631854 284.49668969 140.80547321 272.23129042 152 261 C152.71285156 260.26394531 153.42570313 259.52789062 154.16015625 258.76953125 C159.78579077 253.32767427 165.69448129 250.63243551 173 248 C174.15435547 247.45085937 174.15435547 247.45085937 175.33203125 246.890625 C188.20540338 242.5932182 203.97510669 246.82895764 215.625 252.5625 C230.72312069 261.43850005 239.08127782 274.24857231 243.54009151 291.03309155 C244.20941602 295.35096039 244.13368477 299.61530022 244.12025452 303.97834778 C244.12111053 304.98881668 244.12196655 305.99928558 244.12284851 307.04037476 C244.12450517 310.44075274 244.11897763 313.84108159 244.11352539 317.24145508 C244.1132191 319.71510409 244.11335246 322.18875318 244.11389065 324.66240215 C244.11409372 330.62120183 244.10980654 336.57998245 244.10338932 342.53877736 C244.09618818 349.43189942 244.09539451 356.32501392 244.09460449 363.21813965 C244.08935456 381.41626215 244.07539344 399.6143813 244.0625 417.8125 C244.041875 458.464375 244.02125 499.11625 244 541 C153.91 541 63.82 541 -29 541 C-29 488.86 -29 436.72 -29 383 C52.84 383 134.68 383 219 383 C225.94739352 327.85444817 225.94739352 327.85444817 211 281 C208.66448604 279.31907646 206.29548569 277.77729141 203.828125 276.296875 C203.22484375 275.86890625 202.6215625 275.4409375 202 275 C202 274.34 202 273.68 202 273 C192.72292354 271.26143882 182.20596994 269.83798225 173.99609375 275.31640625 C167.69983535 280.62694905 164.27838166 285.35044278 161 293 C160.67 316.76 160.34 340.52 160 365 C98.29 365 36.58 365 -27 365 C-27 259.4 -27 153.8 -27 45 C-18.09 45 -9.18 45 0 45 C0 30.15 0 15.3 0 0 Z " fill="#78D5BE" transform="translate(80,59)"/>
<path d="M0 0 C214.83 0 429.66 0 651 0 C651 216.15 651 432.3 651 655 C436.17 655 221.34 655 0 655 C0 438.85 0 222.7 0 0 Z M29 32 C29 227.69 29 423.38 29 625 C224.36 625 419.72 625 621 625 C621 429.31 621 233.62 621 32 C425.64 32 230.28 32 29 32 Z " fill="#FCFBFD" transform="translate(0,0)"/>
<path d="M0 0 C26.73 0 53.46 0 81 0 C81 148.17 81 296.34 81 449 C42.39 449 3.78 449 -36 449 C-36 317.33 -36 185.66 -36 50 C-24.12 50 -12.24 50 0 50 C0 33.5 0 17 0 0 Z " fill="#77D4BE" transform="translate(518,151)"/>
<path d="M0 0 C40.92 0 81.84 0 124 0 C124 116.16 124 232.32 124 352 C83.08 352 42.16 352 0 352 C0 235.84 0 119.68 0 0 Z " fill="#240573" transform="translate(343,248)"/>
<path d="M0 0 C85.14 0 170.28 0 258 0 C258 25.74 258 51.48 258 78 C214.11 78 170.22 78 125 78 C125 108.69 125 139.38 125 171 C83.75 171 42.5 171 0 171 C0 114.57 0 58.14 0 0 Z " fill="#78D5BE" transform="translate(342,59)"/>
<path d="M0 0 C37.95 0 75.9 0 115 0 C115.04030303 58.64091479 115.04030303 58.64091479 115.04882812 83.13085938 C115.05078613 88.72745771 115.05280666 94.32405602 115.05493164 99.9206543 C115.05519539 100.62214133 115.05545914 101.32362837 115.05573088 102.04637259 C115.06008564 113.38602197 115.06797246 124.7256663 115.0771528 136.06531268 C115.08648916 147.69427491 115.09198067 159.32323419 115.09408849 170.9522 C115.09539604 177.48761304 115.09848468 184.02301462 115.10573006 190.558424 C115.11248618 196.70193847 115.1146178 202.8454367 115.11310768 208.98895454 C115.11338419 211.2509533 115.11539172 213.51295256 115.11920547 215.77494812 C115.12413636 218.84871932 115.12300053 221.9224281 115.12025452 224.99620056 C115.12316736 225.90376962 115.1260802 226.81133868 115.12908131 227.74640983 C115.11412121 233.88587879 115.11412121 233.88587879 114 235 C76.38 235 38.76 235 0 235 C0 157.45 0 79.9 0 0 Z " fill="#77D4BE" transform="translate(209,59)"/>
<path d="M0 0 C40.92 0 81.84 0 124 0 C124 116.16 124 232.32 124 352 C83.08 352 42.16 352 0 352 C0 235.84 0 119.68 0 0 Z M22 21 C22 123.3 22 225.6 22 331 C25.63 331 29.26 331 33 331 C33 315.49 33 299.98 33 284 C40.26 284 47.52 284 55 284 C55 299.51 55 315.02 55 331 C59.62 331 64.24 331 69 331 C69 315.49 69 299.98 69 284 C76.26 284 83.52 284 91 284 C91 299.51 91 315.02 91 331 C94.63 331 98.26 331 102 331 C102 228.7 102 126.4 102 21 C75.6 21 49.2 21 22 21 Z " fill="#76D2BD" transform="translate(343,248)"/>
<path d="M0 0 C61.38 0 122.76 0 186 0 C186 37.29 186 74.58 186 113 C124.62 113 63.24 113 0 113 C0 107.72 0 102.44 0 97 C14.19 97 28.38 97 43 97 C43 86.77 43 76.54 43 66 C28.81 66 14.62 66 0 66 C0 59.73 0 53.46 0 47 C14.19 47 28.38 47 43 47 C43 36.77 43 26.54 43 16 C28.81 16 14.62 16 0 16 C0 10.72 0 5.44 0 0 Z " fill="#240573" transform="translate(73,464)"/>
<path d="M0 0 C26.4 0 52.8 0 80 0 C80 102.3 80 204.6 80 310 C76.37 310 72.74 310 69 310 C69 309.67 69 309.34 69 309 C72.3 309 75.6 309 79 309 C79 207.69 79 106.38 79 2 C48.31 2.495 48.31 2.495 17 3 C16.67 8.61 16.34 14.22 16 20 C21.61 20 27.22 20 33 20 C33.33 32.87 33.66 45.74 34 59 C37.96 59 41.92 59 46 59 C45.99476318 57.854104 45.98952637 56.70820801 45.98413086 55.52758789 C45.96608283 51.29159318 45.95456872 47.05560188 45.94506836 42.81958008 C45.94002769 40.98331125 45.93319523 39.14704646 45.92456055 37.31079102 C45.91248328 34.67723599 45.90676919 32.04373384 45.90234375 29.41015625 C45.89718246 28.58411392 45.89202118 27.75807159 45.88670349 26.90699768 C45.88650795 24.93763632 45.93795848 22.96838386 46 21 C46.495 20.505 46.495 20.505 47 20 C54.26 20 61.52 20 69 20 C69 35.18 69 50.36 69 66 C64.71 66.33 60.42 66.66 56 67 C55.67 75.25 55.34 83.5 55 92 C59.62 92 64.24 92 69 92 C69 111.14 69 130.28 69 150 C61.41 150 53.82 150 46 150 C46 144.72 46 139.44 46 134 C41.71 134 37.42 134 33 134 C33 139.61 33 145.22 33 151 C27.72 151.33 22.44 151.66 17 152 C17.01160156 153.46953125 17.02320313 154.9390625 17.03515625 156.453125 C17.0445363 158.3854154 17.05363627 160.31770717 17.0625 162.25 C17.07087891 163.21808594 17.07925781 164.18617188 17.08789062 165.18359375 C17.09272461 166.58544922 17.09272461 166.58544922 17.09765625 168.015625 C17.10551147 169.30388184 17.10551147 169.30388184 17.11352539 170.61816406 C17 173 17 173 16 177 C21.61 177 27.22 177 33 177 C33 196.14 33 215.28 33 235 C25.74 235 18.48 235 11 235 C10.67 227.08 10.34 219.16 10 211 C6.7 211 3.4 211 0 211 C0 141.37 0 71.74 0 0 Z " fill="#240674" transform="translate(365,269)"/>
<path d="M0 0 C21.78 0 43.56 0 66 0 C66 9.9 66 19.8 66 30 C64 32 64 32 56 33 C55.67 38.61 55.34 44.22 55 50 C57.97 50 60.94 50 64 50 C64 59.9 64 69.8 64 80 C56.41 80 48.82 80 41 80 C41 77.69 41 75.38 41 73 C35.39 73 29.78 73 24 73 C24 75.31 24 77.62 24 80 C22.34605883 81.65394117 20.39684587 81.12999683 18.125 81.1328125 C17.14015625 81.13410156 16.1553125 81.13539063 15.140625 81.13671875 C14.10421875 81.13285156 13.0678125 81.12898437 12 81.125 C10.44539063 81.13080078 10.44539063 81.13080078 8.859375 81.13671875 C7.87453125 81.13542969 6.8896875 81.13414062 5.875 81.1328125 C4.96492188 81.13168457 4.05484375 81.13055664 3.1171875 81.12939453 C1 81 1 81 0 80 C0 77.69 0 75.38 0 73 C-5.94 73 -11.88 73 -18 73 C-18 75.31 -18 77.62 -18 80 C-19 81 -19 81 -21.13305664 81.11352539 C-22.04949951 81.10828857 -22.96594238 81.10305176 -23.91015625 81.09765625 C-24.800979 81.09515869 -25.69180176 81.09266113 -26.60961914 81.09008789 C-27.74906982 81.08098389 -28.88852051 81.07187988 -30.0625 81.0625 C-33.671875 81.041875 -37.28125 81.02125 -41 81 C-41 71.1 -41 61.2 -41 51 C-33.41 51 -25.82 51 -18 51 C-18.04125 48.89625 -18.0825 46.7925 -18.125 44.625 C-18.1953125 41.0390625 -18.1953125 41.0390625 -18 38 C-15.16992998 35.16992998 -12.38047148 35.64754074 -8.5859375 35.5859375 C-7.49147812 35.55688828 -7.49147812 35.55688828 -6.37490845 35.5272522 C-4.04172498 35.46741578 -1.70849227 35.42105577 0.625 35.375 C2.20575082 35.33682386 3.78648076 35.29777235 5.3671875 35.2578125 C9.2446223 35.16171122 13.12215449 35.07769588 17 35 C17.495 34.01 17.495 34.01 18 33 C12.06 32.67 6.12 32.34 0 32 C0 21.44 0 10.88 0 0 Z " fill="#250874" transform="translate(176,480)"/>
<path d="M0 0 C20.46 0 40.92 0 62 0 C62 68.97 62 137.94 62 209 C58.7 209 55.4 209 52 209 C52 198.11 52 187.22 52 176 C44.41 176 36.82 176 29 176 C29 186.89 29 197.78 29 209 C24.71 209 20.42 209 16 209 C16 197.78 16 186.56 16 175 C10.39 175 4.78 175 -1 175 C-1.0268245 170.85412418 -1.04675315 166.70841962 -1.0625 162.5625 C-1.07087891 161.37849609 -1.07925781 160.19449219 -1.08789062 158.97460938 C-1.09111328 157.84990234 -1.09433594 156.72519531 -1.09765625 155.56640625 C-1.10289307 154.52427979 -1.10812988 153.48215332 -1.11352539 152.40844727 C-1 150 -1 150 0 149 C2.6986905 148.92674564 5.36502556 148.90777649 8.0625 148.9375 C10.681875 148.958125 13.30125 148.97875 16 149 C16 143.39 16 137.78 16 132 C20.29 132 24.58 132 29 132 C29 137.28 29 142.56 29 148 C36.59 148 44.18 148 52 148 C52 128.86 52 109.72 52 90 C47.38 90 42.76 90 38 90 C37.9731755 85.85412418 37.95324685 81.70841962 37.9375 77.5625 C37.92912109 76.37849609 37.92074219 75.19449219 37.91210938 73.97460938 C37.90888672 72.84990234 37.90566406 71.72519531 37.90234375 70.56640625 C37.89710693 69.52427979 37.89187012 68.48215332 37.88647461 67.40844727 C38 65 38 65 39 64 C43.29 64 47.58 64 52 64 C52 48.82 52 33.64 52 18 C44.74 18.33 37.48 18.66 30 19 C29.67 31.54 29.34 44.08 29 57 C22.565 57.495 22.565 57.495 16 58 C16 44.8 16 31.6 16 18 C10.39 18 4.78 18 -1 18 C-1.020625 15.215625 -1.04125 12.43125 -1.0625 9.5625 C-1.071604 8.68408447 -1.08070801 7.80566895 -1.09008789 6.90063477 C-1.09723091 4.93354026 -1.05031893 2.96646379 -1 1 C-0.67 0.67 -0.34 0.34 0 0 Z " fill="#230473" transform="translate(382,271)"/>
<path d="M0 0 C195.36 0 390.72 0 592 0 C592 0.33 592 0.66 592 1 C463.96 1 335.92 1 204 1 C204 9.25 204 17.5 204 26 C233.7 26 263.4 26 294 26 C294 26.33 294 26.66 294 27 C256.38 27 218.76 27 180 27 C180 41.85 180 56.7 180 72 C173.73 72 167.46 72 161 72 C161 169.02 161 266.04 161 366 C169.25 366 177.5 366 186 366 C186 366.33 186 366.66 186 367 C177.09 367 168.18 367 159 367 C159 269.65 159 172.3 159 72 C150.42 72 141.84 72 133 72 C132 71 132 71 131.87974548 69.20933533 C131.88196609 68.42990067 131.88418671 67.650466 131.88647461 66.84741211 C131.88659546 65.95421265 131.88671631 65.06101318 131.88684082 64.14074707 C131.89195679 63.19582397 131.89707275 62.25090088 131.90234375 61.27734375 C131.90335083 60.41338989 131.90435791 59.54943604 131.90539551 58.65930176 C131.9106445 55.41868775 131.92460564 52.1780926 131.9375 48.9375 C131.958125 41.698125 131.97875 34.45875 132 27 C105.27 27 78.54 27 51 27 C51 41.85 51 56.7 51 72 C42.09 72 33.18 72 24 72 C24 177.6 24 283.2 24 392 C23.67 392 23.34 392 23 392 C23 286.07 23 180.14 23 71 C31.91 71 40.82 71 50 71 C50 56.15 50 41.3 50 26 C76.07 25.67 102.14 25.34 129 25 C129 17.08 129 9.16 129 1 C86.43 1 43.86 1 0 1 C0 0.67 0 0.34 0 0 Z " fill="#2D167B" transform="translate(29,32)"/>
<path d="M0 0 C61.38 0 122.76 0 186 0 C186 4.62 186 9.24 186 14 C177.42 14 168.84 14 160 14 C160 9.71 160 5.42 160 1 C147.46 1.33 134.92 1.66 122 2 C121.67 5.96 121.34 9.92 121 14 C109.12 14 97.24 14 85 14 C85 26.54 85 39.08 85 52 C85.66 52.33 86.32 52.66 87 53 C86.67 53.33 86.34 53.66 86 54 C85.76518307 56.18292774 85.58636677 58.37203174 85.4375 60.5625 C85.293125 62.686875 85.14875 64.81125 85 67 C77.08 67 69.16 67 61 67 C61 74.26 61 81.52 61 89 C52.585 89.495 52.585 89.495 44 90 C44 82.08 44 74.16 44 66 C29.48 66 14.96 66 0 66 C0 59.73 0 53.46 0 47 C14.19 47 28.38 47 43 47 C43 36.77 43 26.54 43 16 C28.81 16 14.62 16 0 16 C0 10.72 0 5.44 0 0 Z " fill="#240573" transform="translate(73,464)"/>
<path d="M0 0 C7.26 0 14.52 0 22 0 C22 15.18 22 30.36 22 46 C15.565 46.495 15.565 46.495 9 47 C8.67 55.25 8.34 63.5 8 72 C12.62 72 17.24 72 22 72 C22 91.14 22 110.28 22 130 C14.41 130 6.82 130 -1 130 C-1 124.72 -1 119.44 -1 114 C-5.29 114 -9.58 114 -14 114 C-14 119.28 -14 124.56 -14 130 C-21.26 130 -28.52 130 -36 130 C-36 111.19 -36 92.38 -36 73 C-33.525 72.505 -33.525 72.505 -31 72 C-31.00523682 71.2479126 -31.01047363 70.4958252 -31.01586914 69.72094727 C-31.03657227 66.33480658 -31.04963877 62.94867916 -31.0625 59.5625 C-31.07087891 58.37849609 -31.07925781 57.19449219 -31.08789062 55.97460938 C-31.09111328 54.84990234 -31.09433594 53.72519531 -31.09765625 52.56640625 C-31.10289307 51.52427979 -31.10812988 50.48215332 -31.11352539 49.40844727 C-31 47 -31 47 -30 46 C-27.30345146 45.92680379 -24.63308542 45.90757463 -21.9375 45.9375 C-20.79958008 45.94426758 -20.79958008 45.94426758 -19.63867188 45.95117188 C-17.75908129 45.9629932 -15.87953101 45.98092922 -14 46 C-14.020625 45.030625 -14.04125 44.06125 -14.0625 43.0625 C-14 40 -14 40 -13 39 C-10.98035801 38.92755947 -8.95832876 38.91622812 -6.9375 38.9375 C-5.83277344 38.94652344 -4.72804688 38.95554687 -3.58984375 38.96484375 C-2.73519531 38.97644531 -1.88054687 38.98804688 -1 39 C-1.00523682 37.854104 -1.01047363 36.70820801 -1.01586914 35.52758789 C-1.03391717 31.29159318 -1.04543128 27.05560188 -1.05493164 22.81958008 C-1.05997231 20.98331125 -1.06680477 19.14704646 -1.07543945 17.31079102 C-1.08751672 14.67723599 -1.09323081 12.04373384 -1.09765625 9.41015625 C-1.10281754 8.58411392 -1.10797882 7.75807159 -1.11329651 6.90699768 C-1.11349205 4.93763632 -1.06204152 2.96838386 -1 1 C-0.67 0.67 -0.34 0.34 0 0 Z " fill="#240673" transform="translate(412,289)"/>
<path d="M0 0 C0.33 0 0.66 0 1 0 C1 28.38 1 56.76 1 86 C-80.84 86 -162.68 86 -247 86 C-247 138.14 -247 190.28 -247 244 C-156.91 244 -66.82 244 26 244 C26 244.33 26 244.66 26 245 C-53.86 245.33 -133.72 245.66 -216 246 C-216.33 253.59 -216.66 261.18 -217 269 C-234.16 269 -251.32 269 -269 269 C-269.04010881 251.32092815 -269.04010881 251.32092815 -269.04882812 243.81054688 C-269.05481616 238.6769915 -269.06191538 233.54345388 -269.07543945 228.40991211 C-269.08626975 224.273206 -269.09227714 220.13651892 -269.09487724 215.99979973 C-269.09673124 214.41807696 -269.10035136 212.83635529 -269.10573006 211.25464058 C-269.1129424 209.04677162 -269.11399086 206.83898227 -269.11352539 204.63110352 C-269.115746 203.37201675 -269.11796661 202.11292999 -269.12025452 200.81568909 C-269 198 -269 198 -268 197 C-266.58429877 196.91348389 -265.164405 196.89295096 -263.74609375 196.90234375 C-262.46508789 196.90717773 -262.46508789 196.90717773 -261.15820312 196.91210938 C-260.26037109 196.92048828 -259.36253906 196.92886719 -258.4375 196.9375 C-257.53580078 196.94201172 -256.63410156 196.94652344 -255.70507812 196.95117188 C-253.46998686 196.96299775 -251.23502563 196.9794778 -249 197 C-249.00092179 196.42885751 -249.00184359 195.85771502 -249.00279331 195.26926517 C-249.02484956 181.39084823 -249.04134829 167.51243434 -249.05181217 153.63400364 C-249.05697489 146.92258132 -249.06401713 140.21117068 -249.07543945 133.49975586 C-249.08626565 127.02886264 -249.09227626 120.55798158 -249.09487724 114.08708 C-249.09673198 111.61221055 -249.1003535 109.1373418 -249.10573006 106.66247749 C-249.11293693 103.20929627 -249.11399109 99.75616599 -249.11352539 96.30297852 C-249.11712067 95.26864182 -249.12071594 94.23430511 -249.12442017 93.16862488 C-249.1230455 92.23327911 -249.12167084 91.29793335 -249.12025452 90.33424377 C-249.12117631 89.5166134 -249.1220981 88.69898302 -249.12304783 87.85657597 C-249 86 -249 86 -248 85 C-246.59588683 84.9045307 -245.18700191 84.87811471 -243.77964783 84.87974548 C-242.41449287 84.87768349 -242.41449287 84.87768349 -241.02175903 84.87557983 C-240.01547455 84.87917511 -239.00919006 84.88277039 -237.97241211 84.88647461 C-236.91888046 84.88632858 -235.86534882 84.88618256 -234.77989197 84.8860321 C-231.279022 84.88673174 -227.77820448 84.89452652 -224.27734375 84.90234375 C-221.85738657 84.90420775 -219.43742901 84.90563174 -217.01747131 84.90663147 C-210.63384976 84.91045808 -204.25025079 84.92028959 -197.86663818 84.93133545 C-191.35836086 84.94154649 -184.8500799 84.94612843 -178.34179688 84.95117188 C-165.56118797 84.96191173 -152.78059586 84.97898986 -140 85 C-140 79.72 -140 74.44 -140 69 C-174.65 69 -209.3 69 -245 69 C-245 68.67 -245 68.34 -245 68 C-183.29 68 -121.58 68 -58 68 C-58 68.33 -58 68.66 -58 69 C-73.18 69 -88.36 69 -104 69 C-104 73.95 -104 78.9 -104 84 C-69.68 84.33 -35.36 84.66 0 85 C0 56.95 0 28.9 0 0 Z " fill="#240774" transform="translate(298,356)"/>
<path d="M0 0 C26.4 0 52.8 0 80 0 C80 102.3 80 204.6 80 310 C76.37 310 72.74 310 69 310 C69 309.67 69 309.34 69 309 C72.3 309 75.6 309 79 309 C79 207.69 79 106.38 79 2 C48.31 2.495 48.31 2.495 17 3 C16.67 8.61 16.34 14.22 16 20 C21.61 20 27.22 20 33 20 C33 34.85 33 49.7 33 65 C25.74 65 18.48 65 11 65 C10.67 63.02 10.34 61.04 10 59 C5.05 59.495 5.05 59.495 0 60 C0 40.2 0 20.4 0 0 Z " fill="#2B177A" transform="translate(365,269)"/>
<path d="M0 0 C5.61 0 11.22 0 17 0 C17 37.95 17 75.9 17 115 C11.39 115 5.78 115 0 115 C0 77.05 0 39.1 0 0 Z " fill="#230473" transform="translate(282,463)"/>
<path d="M0 0 C4.95 0 9.9 0 15 0 C15 39.6 15 79.2 15 120 C10.05 120 5.1 120 0 120 C0 80.4 0 40.8 0 0 Z " fill="#2D1C7C" transform="translate(503,421)"/>
<path d="M0 0 C4.62 0 9.24 0 14 0 C14 39.93 14 79.86 14 121 C9.38 121 4.76 121 0 121 C0 81.07 0 41.14 0 0 Z " fill="#291277" transform="translate(564,420)"/>
<path d="M0 0 C4.62 0 9.24 0 14 0 C14 39.93 14 79.86 14 121 C9.38 121 4.76 121 0 121 C0 81.07 0 41.14 0 0 Z " fill="#291178" transform="translate(534,420)"/>
<path d="M0 0 C4.95 0 9.9 0 15 0 C15 30.69 15 61.38 15 93 C10.38 93 5.76 93 1 93 C-0.85581966 91.14418034 -0.12004366 88.50601694 -0.12442017 86.03713989 C-0.12082489 85.18046722 -0.11722961 84.32379456 -0.11352539 83.44116211 C-0.11367142 82.54368759 -0.11381744 81.64621307 -0.1139679 80.72154236 C-0.11326842 77.74011866 -0.10547441 74.7587566 -0.09765625 71.77734375 C-0.09579219 69.71611058 -0.09436823 67.65487696 -0.09336853 65.59364319 C-0.08954237 60.1569599 -0.07971126 54.72030314 -0.06866455 49.28363037 C-0.05845253 43.74052286 -0.05387136 38.19741108 -0.04882812 32.65429688 C-0.03808908 21.76951957 -0.02101149 10.88476198 0 0 Z " fill="#230473" transform="translate(533,300)"/>
<path d="M0 0 C4.95 0 9.9 0 15 0 C15 30.69 15 61.38 15 93 C10.38 93 5.76 93 1 93 C-0.85581966 91.14418034 -0.12004366 88.50601694 -0.12442017 86.03713989 C-0.12082489 85.18046722 -0.11722961 84.32379456 -0.11352539 83.44116211 C-0.11367142 82.54368759 -0.11381744 81.64621307 -0.1139679 80.72154236 C-0.11326842 77.74011866 -0.10547441 74.7587566 -0.09765625 71.77734375 C-0.09579219 69.71611058 -0.09436823 67.65487696 -0.09336853 65.59364319 C-0.08954237 60.1569599 -0.07971126 54.72030314 -0.06866455 49.28363037 C-0.05845253 43.74052286 -0.05387136 38.19741108 -0.04882812 32.65429688 C-0.03808908 21.76951957 -0.02101149 10.88476198 0 0 Z " fill="#240473" transform="translate(503,300)"/>
<path d="M0 0 C4.95 0 9.9 0 15 0 C15 30.69 15 61.38 15 93 C10.38 93 5.76 93 1 93 C-0.85581966 91.14418034 -0.12004366 88.50601694 -0.12442017 86.03713989 C-0.12082489 85.18046722 -0.11722961 84.32379456 -0.11352539 83.44116211 C-0.11367142 82.54368759 -0.11381744 81.64621307 -0.1139679 80.72154236 C-0.11326842 77.74011866 -0.10547441 74.7587566 -0.09765625 71.77734375 C-0.09579219 69.71611058 -0.09436823 67.65487696 -0.09336853 65.59364319 C-0.08954237 60.1569599 -0.07971126 54.72030314 -0.06866455 49.28363037 C-0.05845253 43.74052286 -0.05387136 38.19741108 -0.04882812 32.65429688 C-0.03808908 21.76951957 -0.02101149 10.88476198 0 0 Z " fill="#2A1578" transform="translate(563,300)"/>
<path d="M0 0 C0.33 0 0.66 0 1 0 C1 18.81 1 37.62 1 57 C8.26 57 15.52 57 23 57 C23 57.33 23 57.66 23 58 C15.08 58.495 15.08 58.495 7 59 C6.67 67.25 6.34 75.5 6 84 C4.35 84 2.7 84 1 84 C1 99.84 1 115.68 1 132 C-2.63 132 -6.26 132 -10 132 C-10 99.33 -10 66.66 -10 33 C-6.7 33 -3.4 33 0 33 C0 22.11 0 11.22 0 0 Z " fill="#240674" transform="translate(375,447)"/>
<path d="M0 0 C7.26 0 14.52 0 22 0 C22 18.81 22 37.62 22 57 C14.74 57 7.48 57 0 57 C0 38.19 0 19.38 0 0 Z " fill="#75CEBC" transform="translate(412,447)"/>
<path d="M0 0 C7.26 0 14.52 0 22 0 C22 18.81 22 37.62 22 57 C14.74 57 7.48 57 0 57 C0 38.19 0 19.38 0 0 Z " fill="#75CFBC" transform="translate(376,447)"/>
<path d="M0 0 C7.26 0 14.52 0 22 0 C22 18.81 22 37.62 22 57 C14.74 57 7.48 57 0 57 C0 38.19 0 19.38 0 0 Z " fill="#75CFBC" transform="translate(376,362)"/>
<path d="M0 0 C0.33 0 0.66 0 1 0 C1 28.38 1 56.76 1 86 C-80.84 86 -162.68 86 -247 86 C-247 137.81 -247 189.62 -247 243 C-247.33 243 -247.66 243 -248 243 C-248 190.86 -248 138.72 -248 85 C-212.36 85 -176.72 85 -140 85 C-140 79.72 -140 74.44 -140 69 C-174.65 69 -209.3 69 -245 69 C-245 68.67 -245 68.34 -245 68 C-183.29 68 -121.58 68 -58 68 C-58 68.33 -58 68.66 -58 69 C-73.18 69 -88.36 69 -104 69 C-104 73.95 -104 78.9 -104 84 C-69.68 84.33 -35.36 84.66 0 85 C0 56.95 0 28.9 0 0 Z " fill="#353183" transform="translate(298,356)"/>
<path d="M0 0 C6.93 0 13.86 0 21 0 C22 1 22 1 22.12025452 3.24623108 C22.1169236 4.73515114 22.1169236 4.73515114 22.11352539 6.25415039 C22.11344986 7.37523697 22.11337433 8.49632355 22.11329651 9.65138245 C22.10813522 10.8711528 22.10297394 12.09092316 22.09765625 13.34765625 C22.0962413 14.58921982 22.09482635 15.83078339 22.09336853 17.10997009 C22.08870591 20.41605491 22.07971497 23.72207146 22.06866455 27.02813721 C22.05844827 30.3996115 22.05387045 33.77109283 22.04882812 37.14257812 C22.03777395 43.76174018 22.0204966 50.38086071 22 57 C14.74 57 7.48 57 0 57 C0 38.19 0 19.38 0 0 Z " fill="#75CEBB" transform="translate(412,362)"/>
<path d="M0 0 C0.69771011 0.00359528 1.39542023 0.00719055 2.11427307 0.01089478 C3.2117688 0.01067574 3.2117688 0.01067574 4.33143616 0.01045227 C6.76094989 0.0111515 9.19038789 0.01894432 11.61988831 0.02676392 C13.29997719 0.02862806 14.98006662 0.03005198 16.66015625 0.03105164 C21.09071849 0.03487709 25.52124815 0.04470761 29.95179749 0.05575562 C34.46941182 0.06596914 38.98703139 0.07054913 43.50465393 0.07559204 C52.37511328 0.08632986 61.24553987 0.10392688 70.11598206 0.12442017 C70.11598206 5.07442017 70.11598206 10.02442017 70.11598206 15.12442017 C45.03598206 15.12442017 19.95598206 15.12442017 -5.88401794 15.12442017 C-5.88401794 0.01278951 -5.88401794 0.01278951 0 0 Z " fill="#31257F" transform="translate(508.88401794433594,564.8755798339844)"/>
<path d="M0 0 C23.76 0 47.52 0 72 0 C72 4.95 72 9.9 72 15 C48.24 15 24.48 15 0 15 C0 10.05 0 5.1 0 0 Z " fill="#2D1B7B" transform="translate(230,151)"/>
<path d="M0 0 C23.76 0 47.52 0 72 0 C72 4.95 72 9.9 72 15 C48.24 15 24.48 15 0 15 C0 10.05 0 5.1 0 0 Z " fill="#2C1A7B" transform="translate(230,80)"/>
<path d="M0 0 C23.76 0 47.52 0 72 0 C72 4.62 72 9.24 72 14 C48.24 14 24.48 14 0 14 C0 9.38 0 4.76 0 0 Z " fill="#280F77" transform="translate(230,187)"/>
<path d="M0 0 C23.43 0 46.86 0 71 0 C71 4.62 71 9.24 71 14 C47.57 14 24.14 14 0 14 C0 9.38 0 4.76 0 0 Z " fill="#250875" transform="translate(231,116)"/>
<path d="M0 0 C7.26 0 14.52 0 22 0 C22 14.85 22 29.7 22 45 C14.74 45 7.48 45 0 45 C0 30.15 0 15.3 0 0 Z " fill="#7ADAC0" transform="translate(412,289)"/>
<path d="M0 0 C7.26 0 14.52 0 22 0 C22 14.85 22 29.7 22 45 C14.74 45 7.48 45 0 45 C0 30.15 0 15.3 0 0 Z " fill="#74CCBB" transform="translate(376,289)"/>
<path d="M0 0 C17.16 0 34.32 0 52 0 C52 4.95 52 9.9 52 15 C34.84 15 17.68 15 0 15 C0 10.05 0 5.1 0 0 Z " fill="#2B1679" transform="translate(74,185)"/>
<path d="M0 0 C17.16 0 34.32 0 52 0 C52 4.95 52 9.9 52 15 C44.75512951 15.02464113 37.51028318 15.0428318 30.26538086 15.05493164 C27.79857967 15.05997356 25.33178148 15.06680691 22.86499023 15.07543945 C19.32795471 15.08751125 15.79095855 15.09322956 12.25390625 15.09765625 C11.14350479 15.10281754 10.03310333 15.10797882 8.88905334 15.11329651 C7.35757912 15.11340981 7.35757912 15.11340981 5.79516602 15.11352539 C4.43948265 15.11685631 4.43948265 15.11685631 3.05641174 15.12025452 C1 15 1 15 0 14 C0 9.38 0 4.76 0 0 Z " fill="#230473" transform="translate(74,382)"/>
<path d="M0 0 C4.95 0 9.9 0 15 0 C15 16.83 15 33.66 15 51 C10.05 51 5.1 51 0 51 C0 34.17 0 17.34 0 0 Z " fill="#281076" transform="translate(230,222)"/>
<path d="M0 0 C16.83 0 33.66 0 51 0 C51 4.95 51 9.9 51 15 C34.17 15 17.34 15 0 15 C0 10.05 0 5.1 0 0 Z " fill="#230471" transform="translate(75,214)"/>
<path d="M0 0 C4.29 0 8.58 0 13 0 C13 19.14 13 38.28 13 58 C8.71 58 4.42 58 0 58 C0 38.86 0 19.72 0 0 Z " fill="#230473" transform="translate(504,422)"/>
<path d="M0 0 C3.96 0 7.92 0 12 0 C12 20.46 12 40.92 12 62 C8.04 62 4.08 62 0 62 C0 41.54 0 21.08 0 0 Z " fill="#230471" transform="translate(565,478)"/>
<path d="M0 0 C17.16 0 34.32 0 52 0 C52 4.62 52 9.24 52 14 C34.84 14 17.68 14 0 14 C0 9.38 0 4.76 0 0 Z " fill="#270F75" transform="translate(74,243)"/>
<path d="M0 0 C3.96 0 7.92 0 12 0 C12 19.8 12 39.6 12 60 C8.04 60 4.08 60 0 60 C0 40.2 0 20.4 0 0 Z " fill="#230473" transform="translate(535,480)"/>
<path d="M0 0 C16.83 0 33.66 0 51 0 C51 4.62 51 9.24 51 14 C34.17 14 17.34 14 0 14 C0 9.38 0 4.76 0 0 Z " fill="#270E75" transform="translate(75,325)"/>
<path d="M0 0 C4.62 0 9.24 0 14 0 C14 16.83 14 33.66 14 51 C9.38 51 4.76 51 0 51 C0 34.17 0 17.34 0 0 Z " fill="#281077" transform="translate(288,222)"/>
<path d="M0 0 C16.83 0 33.66 0 51 0 C51 4.62 51 9.24 51 14 C34.17 14 17.34 14 0 14 C0 9.38 0 4.76 0 0 Z " fill="#260B75" transform="translate(75,157)"/>
<path d="M0 0 C16.83 0 33.66 0 51 0 C51 4.62 51 9.24 51 14 C34.17 14 17.34 14 0 14 C0 9.38 0 4.76 0 0 Z " fill="#260A75" transform="translate(75,128)"/>
<path d="M0 0 C7.59 0 15.18 0 23 0 C23 10.23 23 20.46 23 31 C15.41 31 7.82 31 0 31 C0 20.77 0 10.54 0 0 Z " fill="#73C9BA" transform="translate(176,480)"/>
<path d="M0 0 C3.609375 -0.020625 7.21875 -0.04125 10.9375 -0.0625 C12.07695068 -0.071604 13.21640137 -0.08070801 14.39038086 -0.09008789 C15.28120361 -0.09258545 16.17202637 -0.09508301 17.08984375 -0.09765625 C18.46450806 -0.10551147 18.46450806 -0.10551147 19.86694336 -0.11352539 C22 0 22 0 23 1 C23.08783542 3.21855264 23.10694609 5.43988496 23.09765625 7.66015625 C23.0962413 8.32462265 23.09482635 8.98908905 23.09336853 9.6736908 C23.08775518 11.80333899 23.07520054 13.93288339 23.0625 16.0625 C23.05748671 17.50325369 23.05292351 18.94400903 23.04882812 20.38476562 C23.03863076 23.92324958 23.0190583 27.46150813 23 31 C15.41 31 7.82 31 0 31 C0 20.77 0 10.54 0 0 Z " fill="#73C9B9" transform="translate(135,480)"/>
<path d="M0 0 C7.59 0 15.18 0 23 0 C23 9.9 23 19.8 23 30 C17.5859375 30.0309375 17.5859375 30.0309375 12.0625 30.0625 C10.92304932 30.071604 9.78359863 30.08070801 8.60961914 30.09008789 C7.71879639 30.09258545 6.82797363 30.09508301 5.91015625 30.09765625 C4.53549194 30.10551147 4.53549194 30.10551147 3.13305664 30.11352539 C1 30 1 30 0 29 C-0.08775605 26.85441173 -0.10695219 24.70595579 -0.09765625 22.55859375 C-0.09443359 21.25341797 -0.09121094 19.94824219 -0.08789062 18.60351562 C-0.07953401 17.2148431 -0.07106905 15.82617123 -0.0625 14.4375 C-0.05748666 13.04492344 -0.05292347 11.65234519 -0.04882812 10.25976562 C-0.03699442 6.83982549 -0.01905831 3.4199075 0 0 Z " fill="#74CBBA" transform="translate(176,531)"/>
<path d="M0 0 C7.59 0 15.18 0 23 0 C23.02291394 4.11177927 23.04283951 8.22339658 23.05493164 12.33520508 C23.0599708 13.73495228 23.06680216 15.1346942 23.07543945 16.53442383 C23.0875232 18.54245777 23.09269807 20.55052957 23.09765625 22.55859375 C23.10551147 24.37315063 23.10551147 24.37315063 23.11352539 26.22436523 C23 29 23 29 22 30 C20.36527118 30.08700342 18.72685945 30.10701063 17.08984375 30.09765625 C16.199021 30.09515869 15.30819824 30.09266113 14.39038086 30.09008789 C13.25093018 30.08098389 12.11147949 30.07187988 10.9375 30.0625 C7.328125 30.041875 3.71875 30.02125 0 30 C0 20.1 0 10.2 0 0 Z " fill="#73CBBA" transform="translate(135,531)"/>
<path d="M0 0 C4.62 0 9.24 0 14 0 C14 16.17 14 32.34 14 49 C9.38 49 4.76 49 0 49 C0 32.83 0 16.66 0 0 Z " fill="#240572" transform="translate(260,223)"/>
<path d="M0 0 C7.26 0 14.52 0 22 0 C22 9.9 22 19.8 22 30 C14.74 30 7.48 30 0 30 C0 20.1 0 10.2 0 0 Z " fill="#77D4BD" transform="translate(218,481)"/>
<path d="M0 0 C16.5 0 33 0 50 0 C50 4.29 50 8.58 50 13 C33.5 13 17 13 0 13 C0 8.71 0 4.42 0 0 Z " fill="#240673" transform="translate(75,354)"/>
<path d="M0 0 C16.5 0 33 0 50 0 C50 4.29 50 8.58 50 13 C33.5 13 17 13 0 13 C0 8.71 0 4.42 0 0 Z " fill="#250774" transform="translate(75,272)"/>
<path d="M0 0 C4.95 0 9.9 0 15 0 C15 14.19 15 28.38 15 43 C10.05 43 5.1 43 0 43 C0 28.81 0 14.62 0 0 Z " fill="#2E1F7C" transform="translate(563,229)"/>
<path d="M0 0 C4.95 0 9.9 0 15 0 C15 14.19 15 28.38 15 43 C10.05 43 5.1 43 0 43 C0 28.81 0 14.62 0 0 Z " fill="#2E1E7D" transform="translate(533,229)"/>
<path d="M0 0 C4.95 0 9.9 0 15 0 C15 14.19 15 28.38 15 43 C10.05 43 5.1 43 0 43 C0 28.81 0 14.62 0 0 Z " fill="#2E1E7D" transform="translate(503,229)"/>
<path d="M0 0 C7.26 0 14.52 0 22 0 C22 9.57 22 19.14 22 29 C14.74 29 7.48 29 0 29 C0 19.43 0 9.86 0 0 Z " fill="#78D5BE" transform="translate(218,531)"/>
<path d="M0 0 C4.95 0 9.9 0 15 0 C15 30.69 15 61.38 15 93 C10.38 93 5.76 93 1 93 C-0.85581966 91.14418034 -0.12004366 88.50601694 -0.12442017 86.03713989 C-0.12082489 85.18046722 -0.11722961 84.32379456 -0.11352539 83.44116211 C-0.11367142 82.54368759 -0.11381744 81.64621307 -0.1139679 80.72154236 C-0.11326842 77.74011866 -0.10547441 74.7587566 -0.09765625 71.77734375 C-0.09579219 69.71611058 -0.09436823 67.65487696 -0.09336853 65.59364319 C-0.08954237 60.1569599 -0.07971126 54.72030314 -0.06866455 49.28363037 C-0.05845253 43.74052286 -0.05387136 38.19741108 -0.04882812 32.65429688 C-0.03808908 21.76951957 -0.02101149 10.88476198 0 0 Z M2 28 C2 48.79 2 69.58 2 91 C5.96 91 9.92 91 14 91 C14 70.21 14 49.42 14 28 C10.04 28 6.08 28 2 28 Z " fill="#322880" transform="translate(533,300)"/>
<path d="M0 0 C1.22244667 0.00333092 1.22244667 0.00333092 2.46958923 0.00672913 C3.39046829 0.00680466 4.31134735 0.00688019 5.26013184 0.00695801 C6.2611644 0.01211929 7.26219696 0.01728058 8.29356384 0.02259827 C9.31316696 0.02401321 10.33277008 0.02542816 11.38327026 0.02688599 C14.65417867 0.03250355 17.92501972 0.04505902 21.19590759 0.05775452 C23.40749515 0.06276725 25.61908377 0.06733055 27.83067322 0.07142639 C33.26494413 0.08247869 38.69916443 0.09975508 44.13340759 0.12025452 C44.13340759 4.08025452 44.13340759 8.04025452 44.13340759 12.12025452 C28.62340759 12.12025452 13.11340759 12.12025452 -2.86659241 12.12025452 C-2.86659241 0.18467914 -2.86659241 0.18467914 0 0 Z " fill="#230473" transform="translate(532.8665924072266,566.8797454833984)"/>
<path d="M0 0 C4.95 0 9.9 0 15 0 C15 30.69 15 61.38 15 93 C10.38 93 5.76 93 1 93 C-0.85581966 91.14418034 -0.12004366 88.50601694 -0.12442017 86.03713989 C-0.12082489 85.18046722 -0.11722961 84.32379456 -0.11352539 83.44116211 C-0.11367142 82.54368759 -0.11381744 81.64621307 -0.1139679 80.72154236 C-0.11326842 77.74011866 -0.10547441 74.7587566 -0.09765625 71.77734375 C-0.09579219 69.71611058 -0.09436823 67.65487696 -0.09336853 65.59364319 C-0.08954237 60.1569599 -0.07971126 54.72030314 -0.06866455 49.28363037 C-0.05845253 43.74052286 -0.05387136 38.19741108 -0.04882812 32.65429688 C-0.03808908 21.76951957 -0.02101149 10.88476198 0 0 Z M2 28 C0.71489224 29.06094586 0.71489224 29.06094586 0.87974548 31.51197815 C0.88196609 32.62894577 0.88418671 33.74591339 0.88647461 34.89672852 C0.88655014 36.15796036 0.88662567 37.4191922 0.88670349 38.71864319 C0.8918109 40.10539794 0.89702691 41.49215229 0.90234375 42.87890625 C0.90420799 44.28995209 0.90563186 45.70099857 0.90663147 47.11204529 C0.91045621 50.83240535 0.9202861 54.5527266 0.93133545 58.27307129 C0.94155052 62.06680781 0.94612929 65.86055058 0.95117188 69.65429688 C0.96190842 77.10288436 0.97950485 84.5514318 1 92 C5.29 92 9.58 92 14 92 C14 70.88 14 49.76 14 28 C10.04 28 6.08 28 2 28 Z " fill="#332A81" transform="translate(503,300)"/>
<path d="M0 0 C5.61 0 11.22 0 17 0 C17 37.95 17 75.9 17 115 C11.39 115 5.78 115 0 115 C0 77.05 0 39.1 0 0 Z M1 15 C1 47.67 1 80.34 1 114 C5.95 114 10.9 114 16 114 C16 81.33 16 48.66 16 15 C11.05 15 6.1 15 1 15 Z " fill="#30227E" transform="translate(282,463)"/>
<path d="M0 0 C4.62 0 9.24 0 14 0 C14 9.24 14 18.48 14 28 C9.05 28 4.1 28 -1 28 C-1.02682159 23.52079403 -1.04675177 19.04174649 -1.0625 14.5625 C-1.07087891 13.28310547 -1.07925781 12.00371094 -1.08789062 10.68554688 C-1.09111328 9.47060547 -1.09433594 8.25566406 -1.09765625 7.00390625 C-1.10289307 5.87799072 -1.10812988 4.7520752 -1.11352539 3.59204102 C-1 1 -1 1 0 0 Z " fill="#230471" transform="translate(564,173)"/>
<path d="M0 0 C4.95 0 9.9 0 15 0 C15 8.91 15 17.82 15 27 C10.05 27 5.1 27 0 27 C0 18.09 0 9.18 0 0 Z " fill="#230473" transform="translate(533,174)"/>
<path d="M0 0 C1.34888732 0.00015905 2.69778075 0.00584927 4.04663086 0.01586914 C5.10991859 0.01799156 5.10991859 0.01799156 6.19468689 0.02015686 C8.46699173 0.02577096 10.73919936 0.03832576 13.01147461 0.05102539 C14.54858257 0.05603858 16.08569206 0.0606018 17.62280273 0.06469727 C21.39823103 0.07574497 25.17358632 0.09301898 28.94897461 0.11352539 C28.94897461 4.07352539 28.94897461 8.03352539 28.94897461 12.11352539 C18.05897461 12.11352539 7.16897461 12.11352539 -4.05102539 12.11352539 C-4.05102539 0.15073432 -4.05102539 0.15073432 0 0 Z " fill="#230473" transform="translate(273.051025390625,187.886474609375)"/>
<path d="M0 0 C1.34888732 0.00015905 2.69778075 0.00584927 4.04663086 0.01586914 C5.10991859 0.01799156 5.10991859 0.01799156 6.19468689 0.02015686 C8.46699173 0.02577096 10.73919936 0.03832576 13.01147461 0.05102539 C14.54858257 0.05603858 16.08569206 0.0606018 17.62280273 0.06469727 C21.39823103 0.07574497 25.17358632 0.09301898 28.94897461 0.11352539 C28.94897461 3.74352539 28.94897461 7.37352539 28.94897461 11.11352539 C18.05897461 11.11352539 7.16897461 11.11352539 -4.05102539 11.11352539 C-4.05102539 0.15073432 -4.05102539 0.15073432 0 0 Z " fill="#230473" transform="translate(273.051025390625,152.886474609375)"/>
<path d="M0 0 C1.34888732 0.00015905 2.69778075 0.00584927 4.04663086 0.01586914 C5.10991859 0.01799156 5.10991859 0.01799156 6.19468689 0.02015686 C8.46699173 0.02577096 10.73919936 0.03832576 13.01147461 0.05102539 C14.54858257 0.05603858 16.08569206 0.0606018 17.62280273 0.06469727 C21.39823103 0.07574497 25.17358632 0.09301898 28.94897461 0.11352539 C28.94897461 3.74352539 28.94897461 7.37352539 28.94897461 11.11352539 C18.05897461 11.11352539 7.16897461 11.11352539 -4.05102539 11.11352539 C-4.05102539 0.15073432 -4.05102539 0.15073432 0 0 Z " fill="#230473" transform="translate(273.051025390625,81.886474609375)"/>
<path d="M0 0 C8.25 0 16.5 0 25 0 C25 4.62 25 9.24 25 14 C16.75 14 8.5 14 0 14 C0 9.38 0 4.76 0 0 Z " fill="#2B167A" transform="translate(425,196)"/>
<path d="M0 0 C8.25 0 16.5 0 25 0 C25 4.62 25 9.24 25 14 C16.75 14 8.5 14 0 14 C0 9.38 0 4.76 0 0 Z " fill="#281177" transform="translate(425,136)"/>
<path d="M0 0 C8.25 0 16.5 0 25 0 C25 4.62 25 9.24 25 14 C16.75 14 8.5 14 0 14 C0 9.38 0 4.76 0 0 Z " fill="#2A1479" transform="translate(425,106)"/>
<path d="M0 0 C7.59 0 15.18 0 23 0 C23 4.95 23 9.9 23 15 C15.41 15 7.82 15 0 15 C0 10.05 0 5.1 0 0 Z " fill="#30227E" transform="translate(144,382)"/>
<path d="M0 0 C7.59 0 15.18 0 23 0 C23 4.95 23 9.9 23 15 C15.41 15 7.82 15 0 15 C0 10.05 0 5.1 0 0 Z " fill="#30247E" transform="translate(144,353)"/>
<path d="M0 0 C7.59 0 15.18 0 23 0 C23 4.95 23 9.9 23 15 C15.41 15 7.82 15 0 15 C0 10.05 0 5.1 0 0 Z " fill="#31257F" transform="translate(144,271)"/>
<path d="M0 0 C7.59 0 15.18 0 23 0 C23 4.95 23 9.9 23 15 C15.41 15 7.82 15 0 15 C0 10.05 0 5.1 0 0 Z " fill="#2F217D" transform="translate(144,214)"/>
<path d="M0 0 C7.59 0 15.18 0 23 0 C23 4.95 23 9.9 23 15 C15.41 15 7.82 15 0 15 C0 10.05 0 5.1 0 0 Z " fill="#2F217E" transform="translate(144,185)"/>
<path d="M0 0 C7.59 0 15.18 0 23 0 C23 4.62 23 9.24 23 14 C15.41 14 7.82 14 0 14 C0 9.38 0 4.76 0 0 Z " fill="#2B1879" transform="translate(144,325)"/>
<path d="M0 0 C7.59 0 15.18 0 23 0 C23 4.62 23 9.24 23 14 C15.41 14 7.82 14 0 14 C0 9.38 0 4.76 0 0 Z " fill="#2D1A7B" transform="translate(144,243)"/>
<path d="M0 0 C7.59 0 15.18 0 23 0 C23 4.62 23 9.24 23 14 C15.41 14 7.82 14 0 14 C0 9.38 0 4.76 0 0 Z " fill="#2B157A" transform="translate(144,157)"/>
<path d="M0 0 C7.59 0 15.18 0 23 0 C23 4.62 23 9.24 23 14 C15.41 14 7.82 14 0 14 C0 9.38 0 4.76 0 0 Z " fill="#2C187A" transform="translate(144,128)"/>
<path d="M0 0 C7.92 0 15.84 0 24 0 C24 4.29 24 8.58 24 13 C16.08 13 8.16 13 0 13 C0 8.71 0 4.42 0 0 Z " fill="#260A75" transform="translate(426,167)"/>
<path d="M0 0 C17.16 0 34.32 0 52 0 C52 4.95 52 9.9 52 15 C44.75512951 15.02464113 37.51028318 15.0428318 30.26538086 15.05493164 C27.79857967 15.05997356 25.33178148 15.06680691 22.86499023 15.07543945 C19.32795471 15.08751125 15.79095855 15.09322956 12.25390625 15.09765625 C11.14350479 15.10281754 10.03310333 15.10797882 8.88905334 15.11329651 C7.35757912 15.11340981 7.35757912 15.11340981 5.79516602 15.11352539 C4.43948265 15.11685631 4.43948265 15.11685631 3.05641174 15.12025452 C1 15 1 15 0 14 C0 9.38 0 4.76 0 0 Z M7 2 C7 5.63 7 9.26 7 13 C21.52 13 36.04 13 51 13 C51 9.37 51 5.74 51 2 C36.48 2 21.96 2 7 2 Z " fill="#383785" transform="translate(74,382)"/>
<path d="M0 0 C6.93 0 13.86 0 21 0 C21 4.62 21 9.24 21 14 C14.07 14 7.14 14 0 14 C0 9.38 0 4.76 0 0 Z " fill="#2A1379" transform="translate(465,106)"/>
<path d="M0 0 C6.93 0 13.86 0 21 0 C21 4.62 21 9.24 21 14 C14.07 14 7.14 14 0 14 C0 9.38 0 4.76 0 0 Z " fill="#281078" transform="translate(465,76)"/>
<path d="M0 0 C16.83 0 33.66 0 51 0 C51 4.95 51 9.9 51 15 C34.17 15 17.34 15 0 15 C0 10.05 0 5.1 0 0 Z M6 2 C6 5.63 6 9.26 6 13 C20.52 13 35.04 13 50 13 C50 9.37 50 5.74 50 2 C35.48 2 20.96 2 6 2 Z " fill="#353183" transform="translate(75,214)"/>
<path d="M0 0 C5.94 0 11.88 0 18 0 C18 4.62 18 9.24 18 14 C12.06 14 6.12 14 0 14 C0 9.38 0 4.76 0 0 Z " fill="#2B187B" transform="translate(501,106)"/>
<path d="M0 0 C5.94 0 11.88 0 18 0 C18 4.62 18 9.24 18 14 C12.06 14 6.12 14 0 14 C0 9.38 0 4.76 0 0 Z " fill="#2B167A" transform="translate(360,106)"/>
<path d="M0 0 C5.94 0 11.88 0 18 0 C18 4.62 18 9.24 18 14 C12.06 14 6.12 14 0 14 C0 9.38 0 4.76 0 0 Z " fill="#2A1578" transform="translate(566,76)"/>
<path d="M0 0 C5.94 0 11.88 0 18 0 C18 4.62 18 9.24 18 14 C12.06 14 6.12 14 0 14 C0 9.38 0 4.76 0 0 Z " fill="#2A157A" transform="translate(533,76)"/>
<path d="M0 0 C5.94 0 11.88 0 18 0 C18 4.62 18 9.24 18 14 C12.06 14 6.12 14 0 14 C0 9.38 0 4.76 0 0 Z " fill="#2A157A" transform="translate(501,76)"/>
<path d="M0 0 C5.94 0 11.88 0 18 0 C18 4.62 18 9.24 18 14 C12.06 14 6.12 14 0 14 C0 9.38 0 4.76 0 0 Z " fill="#291379" transform="translate(360,76)"/>
<path d="M0 0 C5.61 0 11.22 0 17 0 C17 4.62 17 9.24 17 14 C11.39 14 5.78 14 0 14 C0 9.38 0 4.76 0 0 Z " fill="#2A1479" transform="translate(393,136)"/>
<path d="M0 0 C5.61 0 11.22 0 17 0 C17 4.62 17 9.24 17 14 C11.39 14 5.78 14 0 14 C0 9.38 0 4.76 0 0 Z " fill="#291178" transform="translate(393,106)"/>
<path d="M0 0 C5.61 0 11.22 0 17 0 C17 4.62 17 9.24 17 14 C11.39 14 5.78 14 0 14 C0 9.38 0 4.76 0 0 Z " fill="#270D77" transform="translate(393,76)"/>
<path d="M0 0 C4.29 0 8.58 0 13 0 C13 5.61 13 11.22 13 17 C8.71 17 4.42 17 0 17 C0 11.39 0 5.78 0 0 Z " fill="#230473" transform="translate(504,254)"/>
<path d="M0 0 C5.61 0 11.22 0 17 0 C17 4.29 17 8.58 17 13 C11.39 13 5.78 13 0 13 C0 8.71 0 4.42 0 0 Z " fill="#260A76" transform="translate(393,197)"/>
<path d="M0 0 C5.61 0 11.22 0 17 0 C17 4.29 17 8.58 17 13 C11.39 13 5.78 13 0 13 C0 8.71 0 4.42 0 0 Z " fill="#270B76" transform="translate(360,197)"/>
<path d="M0 0 C5.61 0 11.22 0 17 0 C17 4.29 17 8.58 17 13 C11.39 13 5.78 13 0 13 C0 8.71 0 4.42 0 0 Z " fill="#260A75" transform="translate(360,167)"/>
<path d="M0 0 C3.96 0 7.92 0 12 0 C12 5.61 12 11.22 12 17 C8.04 17 4.08 17 0 17 C0 11.39 0 5.78 0 0 Z " fill="#230471" transform="translate(565,254)"/>
<path d="M0 0 C2.83203125 0.03255208 5.6640625 0.06510417 8.49609375 0.09765625 C8.49609375 5.70765625 8.49609375 11.31765625 8.49609375 17.09765625 C4.53609375 17.09765625 0.57609375 17.09765625 -3.50390625 17.09765625 C-3.53075304 14.45175611 -3.55066982 11.80612529 -3.56640625 9.16015625 C-3.57478516 8.40541016 -3.58316406 7.65066406 -3.59179688 6.87304688 C-3.60043066 4.94771312 -3.55614958 3.02230044 -3.50390625 1.09765625 C-2.50390625 0.09765625 -2.50390625 0.09765625 0 0 Z " fill="#230473" transform="translate(538.50390625,253.90234375)"/>
<path d="M0 0 C7.26 0 14.52 0 22 0 C22 14.85 22 29.7 22 45 C14.74 45 7.48 45 0 45 C0 30.15 0 15.3 0 0 Z M1 2 C1 15.86 1 29.72 1 44 C7.27 44 13.54 44 20 44 C20 30.14 20 16.28 20 2 C13.73 2 7.46 2 1 2 Z " fill="#5C91A6" transform="translate(412,289)"/>
<path d="M0 0 C4.62 0 9.24 0 14 0 C14 9.24 14 18.48 14 28 C9.05 28 4.1 28 -1 28 C-1.02682159 23.52079403 -1.04675177 19.04174649 -1.0625 14.5625 C-1.07087891 13.28310547 -1.07925781 12.00371094 -1.08789062 10.68554688 C-1.09111328 9.47060547 -1.09433594 8.25566406 -1.09765625 7.00390625 C-1.10289307 5.87799072 -1.10812988 4.7520752 -1.11352539 3.59204102 C-1 1 -1 1 0 0 Z M1 7 C0.91330568 8.4887186 0.89296506 9.981445 0.90234375 11.47265625 C0.90556641 12.37177734 0.90878906 13.27089844 0.91210938 14.19726562 C0.92048828 15.14279297 0.92886719 16.08832031 0.9375 17.0625 C0.94201172 18.01189453 0.94652344 18.96128906 0.95117188 19.93945312 C0.96299872 22.29299531 0.98093479 24.64650532 1 27 C4.96 27 8.92 27 13 27 C13 20.07 13 13.14 13 6 C6.73812895 5.33166086 6.73812895 5.33166086 1 7 Z " fill="#383885" transform="translate(564,173)"/>
<path d="M0 0 C4.62 0 9.24 0 14 0 C13.67 3.96 13.34 7.92 13 12 C8.71 12 4.42 12 0 12 C0 8.04 0 4.08 0 0 Z " fill="#230472" transform="translate(145,129)"/>
<path d="M0 0 C4.95 0 9.9 0 15 0 C15 8.91 15 17.82 15 27 C10.05 27 5.1 27 0 27 C0 18.09 0 9.18 0 0 Z M2 6 C1.91330568 7.4887186 1.89296506 8.981445 1.90234375 10.47265625 C1.90556641 11.37177734 1.90878906 12.27089844 1.91210938 13.19726562 C1.92048828 14.14279297 1.92886719 15.08832031 1.9375 16.0625 C1.94201172 17.01189453 1.94652344 17.96128906 1.95117188 18.93945312 C1.96299872 21.29299531 1.98093479 23.64650532 2 26 C5.96 26 9.92 26 14 26 C14 19.07 14 12.14 14 5 C7.73812895 4.33166086 7.73812895 4.33166086 2 6 Z " fill="#353183" transform="translate(533,174)"/>
<path d="M0 0 C3.3 0 6.6 0 10 0 C10 3.96 10 7.92 10 12 C3.07 12 -3.86 12 -11 12 C-11 11.34 -11 10.68 -11 10 C-7.37 10 -3.74 10 0 10 C0 6.7 0 3.4 0 0 Z " fill="#22046F" transform="translate(156,244)"/>
<path d="M0 0 C3.3 0 6.6 0 10 0 C10 3.96 10 7.92 10 12 C6.7 12 3.4 12 0 12 C0 8.04 0 4.08 0 0 Z " fill="#230471" transform="translate(156,355)"/>
<path d="M0 0 C3.3 0 6.6 0 10 0 C10 3.96 10 7.92 10 12 C6.7 12 3.4 12 0 12 C0 8.04 0 4.08 0 0 Z " fill="#230472" transform="translate(156,158)"/>
<path d="M0 0 C3.3 0 6.6 0 10 0 C10 3.63 10 7.26 10 11 C6.7 11 3.4 11 0 11 C0 7.37 0 3.74 0 0 Z " fill="#230472" transform="translate(156,384)"/>
<path d="M0 0 C3.3 0 6.6 0 10 0 C10 3.63 10 7.26 10 11 C6.7 11 3.4 11 0 11 C0 7.37 0 3.74 0 0 Z " fill="#230472" transform="translate(156,273)"/>
<path d="M0 0 C3.3 0 6.6 0 10 0 C10 3.63 10 7.26 10 11 C6.7 11 3.4 11 0 11 C0 7.37 0 3.74 0 0 Z " fill="#220470" transform="translate(156,216)"/>
<path d="M0 0 C3.3 0 6.6 0 10 0 C10 3.63 10 7.26 10 11 C6.7 11 3.4 11 0 11 C0 7.37 0 3.74 0 0 Z " fill="#230472" transform="translate(156,187)"/>
<path d="M0 0 C0.721875 0.00257813 1.44375 0.00515625 2.1875 0.0078125 C2.909375 0.00523437 3.63125 0.00265625 4.375 0 C6.1875 0.1328125 6.1875 0.1328125 7.1875 1.1328125 C7.32943337 4.13612268 7.22986378 7.12498384 7.1875 10.1328125 C3.8875 10.1328125 0.5875 10.1328125 -2.8125 10.1328125 C-2.91015625 3.19921875 -2.91015625 3.19921875 -2.8125 1.1328125 C-1.8125 0.1328125 -1.8125 0.1328125 0 0 Z " fill="#22046F" transform="translate(158.8125,327.8671875)"/>
<path d="M0 0 C5.28 0 10.56 0 16 0 C16 1.98 16 3.96 16 6 C8.08 6.495 8.08 6.495 0 7 C0 4.69 0 2.38 0 0 Z " fill="#230571" transform="translate(393,137)"/>
<path d="M0 0 C0.66 0.33 1.32 0.66 2 1 C-1.72346836 5.42094803 -5.29521038 9.57833482 -10 13 C-8.65515286 8.95838045 -6.9494838 6.61321846 -3.875 3.6875 C-3.15054688 2.99011719 -2.42609375 2.29273438 -1.6796875 1.57421875 C-1.12539062 1.05472656 -0.57109375 0.53523438 0 0 Z " fill="#342E83" transform="translate(253,334)"/>
</svg>
